<?xml version="1.0" encoding="utf-8"?>
<svg xmlns="http://www.w3.org/2000/svg" width="2020" height="1000" viewBox="0 0 2020 1000" xmlns:c2pa="http://c2pa.org/manifest"><metadata><c2pa:manifest>AAAWgmp1bWIAAAAeanVtZGMycGEAEQAQgAAAqgA4m3EDYzJwYQAAABZcanVtYgAAAEdqdW1kYzJtYQARABCAAACqADibcQN1cm46YzJwYTo1ZjZlNTdiMi0yMzQwLTRiZTctYTk5Ny1lZWQ3YjJkMjNkNDAAAAADl2p1bWIAAAApanVtZGMyYXMAEQAQgAAAqgA4m3EDYzJwYS5hc3NlcnRpb25zAAAAALxqdW1iAAAARGp1bWRjYm9yABEAEIAAAKoAOJtxE2MycGEuaW5ncmVkaWVudC52MwAAAAAYYzJzaPe9Dy8463LkCigEd66gmRsAAABwY2JvcqNpZGM6Zm9ybWF0bWltYWdlL3N2Zyt4bWxqaW5zdGFuY2VJRHgseG1wOmlpZDo0MTkxZjQ5Yi0zNmIwLTQ2YjUtYTAyYS01NzE4NWRlNzQyN2ZscmVsYXRpb25zaGlwaHBhcmVudE9mAAAB4mp1bWIAAABBanVtZGNib3IAEQAQgAAAqgA4m3ETYzJwYS5hY3Rpb25zLnYyAAAAABhjMnNol+3Fh5n3OO/SpTnGaPX8LAAAAZljYm9yomdhY3Rpb25zgqJmYWN0aW9ua2MycGEub3BlbmVkanBhcmFtZXRlcnOha2luZ3JlZGllbnRzgaJjdXJseC1zZWxmI2p1bWJmPWMycGEuYXNzZXJ0aW9ucy9jMnBhLmluZ3JlZGllbnQudjNkaGFzaFgg7c+L13P6kl2OvYU2zEF9ThroYAJGGXYyp/aPA0ZSRr6kZmFjdGlvbngdY29tLmFudGhyb3BpYy5jbGF1ZGUucHJvdmlkZWRqcGFyYW1ldGVyc6F4H2NvbS5hbnRocm9waWMub3JpZ2luLWNvbmZpZGVuY2VndW5rbm93bmtkZXNjcmlwdGlvbnhmQ2xhdWRlIHByb3ZpZGVkIHRoaXMgZmlsZSBhdCB0aGUgcmVxdWVzdCBvZiBhIHVzZXIgYW5kIG1heSBoYXZlIGNyZWF0ZWQgb3IgbW9kaWZpZWQgdGhlIGZpbGUgY29udGVudHMubXNvZnR3YXJlQWdlbnShZG5hbWVmQ2xhdWRlcmFsbEFjdGlvbnNJbmNsdWRlZPUAAADIanVtYgAAAEBqdW1kY2JvcgARABCAAACqADibcRNjMnBhLmhhc2guZGF0YQAAAAAYYzJzaHeqAwvYpX4KJF1QqI0Pi6kAAACAY2JvcqVjYWxnZnNoYTI1NmNwYWRNAAAAAAAAAAAAAAAAAGRoYXNoWCCv38Toot9jX3MrMlY2anypMkx/JAAKiDMHkp+cu1/gXWRuYW1lbmp1bWJmIG1hbmlmZXN0amV4Y2x1c2lvbnOBomVzdGFydBjBZmxlbmd0aBkeBAAAAj5qdW1iAAAAJ2p1bWRjMmNsABEAEIAAAKoAOJtxA2MycGEuY2xhaW0udjIAAAACD2Nib3KlY2FsZ2ZzaGEyNTZpc2lnbmF0dXJleE1zZWxmI2p1bWJmPS9jMnBhL3VybjpjMnBhOjVmNmU1N2IyLTIzNDAtNGJlNy1hOTk3LWVlZDdiMmQyM2Q0MC9jMnBhLnNpZ25hdHVyZWppbnN0YW5jZUlEeCx4bXA6aWlkOjQ2N2M2NGI2LTQzYjktNDVkYS05MGY1LTMxN2YxYzgwNzgwOHJjcmVhdGVkX2Fzc2VydGlvbnODomN1cmx4LXNlbGYjanVtYmY9YzJwYS5hc3NlcnRpb25zL2MycGEuaW5ncmVkaWVudC52M2RoYXNoWCDtz4vXc/qSXY69hTbMQX1OGuhgAkYZdjKn9o8DRlJGvqJjdXJseCpzZWxmI2p1bWJmPWMycGEuYXNzZXJ0aW9ucy9jMnBhLmFjdGlvbnMudjJkaGFzaFggS7UjShvACp/lDGCRz849vK5ttHR1AAdbwwRMDfvZHDyiY3VybHgpc2VsZiNqdW1iZj1jMnBhLmFzc2VydGlvbnMvYzJwYS5oYXNoLmRhdGFkaGFzaFggPVZbW7NxKFw/zN152ktX0YA4kjZ4YPaXCeDnjU4UBeB0Y2xhaW1fZ2VuZXJhdG9yX2luZm+jZG5hbWVvQW50aHJvcGljIEZpbGVzZ3ZlcnNpb25lMS4wLjBrc3BlY1ZlcnNpb25lMi40LjAAABA4anVtYgAAAChqdW1kYzJjcwARABCAAACqADibcQNjMnBhLnNpZ25hdHVyZQAAABAIY2JvctKEWQISogEmGCFZAgowggIGMIIBjaADAgECAhRA5aAK7sI50L64g/oGQgU9Z1UTADAKBggqhkjOPQQDAzBJMRcwFQYDVQQKEw5BbnRocm9waWMsIFBCQzEuMCwGA1UEAxMlQW50aHJvcGljIENvbnRlbnQgQ3JlZGVudGlhbHMgUm9vdCBDQTAeFw0yNjA4MDcxODQzNTZaFw0yODA4MDYxOTQzNTZaMEQxFzAVBgNVBAoTDkFudGhyb3BpYywgUEJDMSkwJwYDVQQDEyBBbnRocm9waWMgQ2xhdWRlIENvbnRlbnQgU2lnbmluZzBZMBMGByqGSM49AgEGCCqGSM49AwEHA0IABJh6CmvLUBgFFNU0vUKlOVtE6djd17L5SuwX0LemFisBM3dkd/3cyjxFA3Qo5S46fX0/ihY0VZ7mfb9KF703t5OjWDBWMA4GA1UdDwEB/wQEAwIHgDAVBgNVHSUEDjAMBgorBgEEAYPoXgIBMAwGA1UdEwEB/wQCMAAwHwYDVR0jBBgwFoAUzlHiBIFOZFsj+OPEz5o+nMHXXMIwCgYIKoZIzj0EAwMDZwAwZAIwMXMdFJ4BetLLVY7ORuE9noqbbAZOZn/aArXyTwFAZfKrPzxF2vPoJNf1+UCdg1XGAjBwX1zd9WGqYkqmL5SFqw1QySjr1zJfpJM9+1rdDwSPLMOPOjKuiXjoU/pUUeG9RwmhY3BhZFkNngAAAAAAAAAAAAAAAAAAAAAAAAAAAAAAAAAAAAAAAAAAAAAAAAAAAAAAAAAAAAAAAAAAAAAAAAAAAAAAAAAAAAAAAAAAAAAAAAAAAAAAAAAAAAAAAAAAAAAAAAAAAAAAAAAAAAAAAAAAAAAAAAAAAAAAAAAAAAAAAAAAAAAAAAAAAAAAAAAAAAAAAAAAAAAAAAAAAAAAAAAAAAAAAAAAAAAAAAAAAAAAAAAAAAAAAAAAAAAAAAAAAAAAAAAAAAAAAAAAAAAAAAAAAAAAAAAAAAAAAAAAAAAAAAAAAAAAAAAAAAAAAAAAAAAAAAAAAAAAAAAAAAAAAAAAAAAAAAAAAAAAAAAAAAAAAAAAAAAAAAAAAAAAAAAAAAAAAAAAAAAAAAAAAAAAAAAAAAAAAAAAAAAAAAAAAAAAAAAAAAAAAAAAAAAAAAAAAAAAAAAAAAAAAAAAAAAAAAAAAAAAAAAAAAAAAAAAAAAAAAAAAAAAAAAAAAAAAAAAAAAAAAAAAAAAAAAAAAAAAAAAAAAAAAAAAAAAAAAAAAAAAAAAAAAAAAAAAAAAAAAAAAAAAAAAAAAAAAAAAAAAAAAAAAAAAAAAAAAAAAAAAAAAAAAAAAAAAAAAAAAAAAAAAAAAAAAAAAAAAAAAAAAAAAAAAAAAAAAAAAAAAAAAAAAAAAAAAAAAAAAAAAAAAAAAAAAAAAAAAAAAAAAAAAAAAAAAAAAAAAAAAAAAAAAAAAAAAAAAAAAAAAAAAAAAAAAAAAAAAAAAAAAAAAAAAAAAAAAAAAAAAAAAAAAAAAAAAAAAAAAAAAAAAAAAAAAAAAAAAAAAAAAAAAAAAAAAAAAAAAAAAAAAAAAAAAAAAAAAAAAAAAAAAAAAAAAAAAAAAAAAAAAAAAAAAAAAAAAAAAAAAAAAAAAAAAAAAAAAAAAAAAAAAAAAAAAAAAAAAAAAAAAAAAAAAAAAAAAAAAAAAAAAAAAAAAAAAAAAAAAAAAAAAAAAAAAAAAAAAAAAAAAAAAAAAAAAAAAAAAAAAAAAAAAAAAAAAAAAAAAAAAAAAAAAAAAAAAAAAAAAAAAAAAAAAAAAAAAAAAAAAAAAAAAAAAAAAAAAAAAAAAAAAAAAAAAAAAAAAAAAAAAAAAAAAAAAAAAAAAAAAAAAAAAAAAAAAAAAAAAAAAAAAAAAAAAAAAAAAAAAAAAAAAAAAAAAAAAAAAAAAAAAAAAAAAAAAAAAAAAAAAAAAAAAAAAAAAAAAAAAAAAAAAAAAAAAAAAAAAAAAAAAAAAAAAAAAAAAAAAAAAAAAAAAAAAAAAAAAAAAAAAAAAAAAAAAAAAAAAAAAAAAAAAAAAAAAAAAAAAAAAAAAAAAAAAAAAAAAAAAAAAAAAAAAAAAAAAAAAAAAAAAAAAAAAAAAAAAAAAAAAAAAAAAAAAAAAAAAAAAAAAAAAAAAAAAAAAAAAAAAAAAAAAAAAAAAAAAAAAAAAAAAAAAAAAAAAAAAAAAAAAAAAAAAAAAAAAAAAAAAAAAAAAAAAAAAAAAAAAAAAAAAAAAAAAAAAAAAAAAAAAAAAAAAAAAAAAAAAAAAAAAAAAAAAAAAAAAAAAAAAAAAAAAAAAAAAAAAAAAAAAAAAAAAAAAAAAAAAAAAAAAAAAAAAAAAAAAAAAAAAAAAAAAAAAAAAAAAAAAAAAAAAAAAAAAAAAAAAAAAAAAAAAAAAAAAAAAAAAAAAAAAAAAAAAAAAAAAAAAAAAAAAAAAAAAAAAAAAAAAAAAAAAAAAAAAAAAAAAAAAAAAAAAAAAAAAAAAAAAAAAAAAAAAAAAAAAAAAAAAAAAAAAAAAAAAAAAAAAAAAAAAAAAAAAAAAAAAAAAAAAAAAAAAAAAAAAAAAAAAAAAAAAAAAAAAAAAAAAAAAAAAAAAAAAAAAAAAAAAAAAAAAAAAAAAAAAAAAAAAAAAAAAAAAAAAAAAAAAAAAAAAAAAAAAAAAAAAAAAAAAAAAAAAAAAAAAAAAAAAAAAAAAAAAAAAAAAAAAAAAAAAAAAAAAAAAAAAAAAAAAAAAAAAAAAAAAAAAAAAAAAAAAAAAAAAAAAAAAAAAAAAAAAAAAAAAAAAAAAAAAAAAAAAAAAAAAAAAAAAAAAAAAAAAAAAAAAAAAAAAAAAAAAAAAAAAAAAAAAAAAAAAAAAAAAAAAAAAAAAAAAAAAAAAAAAAAAAAAAAAAAAAAAAAAAAAAAAAAAAAAAAAAAAAAAAAAAAAAAAAAAAAAAAAAAAAAAAAAAAAAAAAAAAAAAAAAAAAAAAAAAAAAAAAAAAAAAAAAAAAAAAAAAAAAAAAAAAAAAAAAAAAAAAAAAAAAAAAAAAAAAAAAAAAAAAAAAAAAAAAAAAAAAAAAAAAAAAAAAAAAAAAAAAAAAAAAAAAAAAAAAAAAAAAAAAAAAAAAAAAAAAAAAAAAAAAAAAAAAAAAAAAAAAAAAAAAAAAAAAAAAAAAAAAAAAAAAAAAAAAAAAAAAAAAAAAAAAAAAAAAAAAAAAAAAAAAAAAAAAAAAAAAAAAAAAAAAAAAAAAAAAAAAAAAAAAAAAAAAAAAAAAAAAAAAAAAAAAAAAAAAAAAAAAAAAAAAAAAAAAAAAAAAAAAAAAAAAAAAAAAAAAAAAAAAAAAAAAAAAAAAAAAAAAAAAAAAAAAAAAAAAAAAAAAAAAAAAAAAAAAAAAAAAAAAAAAAAAAAAAAAAAAAAAAAAAAAAAAAAAAAAAAAAAAAAAAAAAAAAAAAAAAAAAAAAAAAAAAAAAAAAAAAAAAAAAAAAAAAAAAAAAAAAAAAAAAAAAAAAAAAAAAAAAAAAAAAAAAAAAAAAAAAAAAAAAAAAAAAAAAAAAAAAAAAAAAAAAAAAAAAAAAAAAAAAAAAAAAAAAAAAAAAAAAAAAAAAAAAAAAAAAAAAAAAAAAAAAAAAAAAAAAAAAAAAAAAAAAAAAAAAAAAAAAAAAAAAAAAAAAAAAAAAAAAAAAAAAAAAAAAAAAAAAAAAAAAAAAAAAAAAAAAAAAAAAAAAAAAAAAAAAAAAAAAAAAAAAAAAAAAAAAAAAAAAAAAAAAAAAAAAAAAAAAAAAAAAAAAAAAAAAAAAAAAAAAAAAAAAAAAAAAAAAAAAAAAAAAAAAAAAAAAAAAAAAAAAAAAAAAAAAAAAAAAAAAAAAAAAAAAAAAAAAAAAAAAAAAAAAAAAAAAAAAAAAAAAAAAAAAAAAAAAAAAAAAAAAAAAAAAAAAAAAAAAAAAAAAAAAAAAAAAAAAAAAAAAAAAAAAAAAAAAAAAAAAAAAAAAAAAAAAAAAAAAAAAAAAAAAAAAAAAAAAAAAAAAAAAAAAAAAAAAAAAAAAAAAAAAAAAAAAAAAAAAAAAAAAAAAAAAAAAAAAAAAAAAAAAAAAAAAAAAAAAAAAAAAAAAAAAAAAAAAAAAAAAAAAAAAAAAAAAAAAAAAAAAAAAAAAAAAAAAAAAAAAAAAAAAAAAAAAAAAAAAAAAAAAAAAAAAAAAAAAAAAAAAAAAAAAAAAAAAAAAAAAAAAAAAAAAAAAAAAAAAAAAAAAAAAAAAAAAAAAAAAAAAAAAAAAAAAAAAAAAAAAAAAAAAAAAAAAAAAAAAAAAAAAAAAAAAAAAAAAAAAAAAAAAAAAAAAAAAAAAAAAAAAAAAAAAAAAAAAAAAAAAAAAAAAAAAAAAAAAAAAAAAAAAAAAAAAAAAAAAAAAAAAAAAAAAAAAAAAAAAAAAAAAAAAAAAAAAAAAAAAAAAAAAAAAAAAAAAAAAAAAAAAAAAAAAAAAAAAAAAAAAAAAAAAAAAAAAAAAAAAAAAAAAAAAAAAAAAAAAAAAAAAAAAAAAAAAAAAAAAAAAAAAAAAAAAAAAAAAAAAAAAAAAAAAAAAAAAAAAAAAAAAAAAAAAAAAAAAAAAAAAAAAAAAAAAAAAAAAAAAAAAAAAAAAAAAAAAAAAAAAAAAAAAAAAAAAAAAAAAAAAAAAAAAAAAAAAAAAAAAAAAAAAAAAAAAAAAAAAAAAAAAAAAAAAAAAAAAAAAAAAAAAAAAAAAAAAAAAAAAAAAAAAAAAAAAAAAAAAAAAAAAAAAAAAAAAAAAAAAAAAAAAAAAAAAAAAAAAAAAAAAAAAAAAAAAAAAAAAAAAAAAAAAAAAAAAAAAAAAAAAAAAAAAAAAAAAAAAAAAAAAAAAAAAAAAAAAAAAAAAAAAAAAAAAAAAAAAAAAAAAAAAAAAAAAAAAAAAAAAAAAAAAAAAAAAAAAAAAAAAAAAAAAAAAAAAAAAAAAAAAAAAAAAAAAAAAAAAAAAAAAAAAAAAAAAAAAAAAAAAAAAAAAAAAAAAAAAAAAAAAAAAAAAAAAAAAAAAAAAAAAAAAAAAAAAAAAAAAAAAAAAAAAAAAAAAAAAAAAAAAAAAAAAAAAAAAAAAAAAAAAAAAAAAAAAAAAAAAAAAAAAAAAAAAAAAAAAAAAAAAAAAAAAAAAAAAAAAAAAAAAAAAAAAAAAAAAAAAAAAAAAAAAAAAAAAAAAAAAAAAAAAAAAAAAAAAAAAAAAAAAAAAAAAAAAAAAAAAAAAAAAAAAAAAAAAAAAAAAAAAAAAAAAAAAAAAAAAAAAAAAAAAAAAAAAAAAAAAAAAAAAAAAAAAAAAAAAAAAAAAAAAAAAAAAAAAAAAAAAAAAAAAAAAAAAAAAAAAAAAAAAAAAAAAAPZYQNXlAwPU/3X+tIIRhK3aWwpBxeqzZ3sjbXgo6IzMmq53gRjxu1zwApsi6V3EB2NyzQB7YMxOHzrXNVYWGHVf04E=</c2pa:manifest></metadata>
  <defs>
    <style>
.box{fill:#ffffff;stroke:#33332f;stroke-width:1;}
.comp{fill:none;stroke:#1c1c1a;stroke-width:1.4;stroke-linejoin:round;stroke-linecap:round;}
.title{font-family:Arial,Helvetica,sans-serif;font-size:16px;font-weight:600;fill:#1c1c1a;}
.sub2{font-family:Arial,Helvetica,sans-serif;font-size:11px;fill:#6b6b66;}
.lbl{font-family:Arial,Helvetica,sans-serif;font-size:12.5px;fill:#1c1c1a;}
.lbls{font-family:Arial,Helvetica,sans-serif;font-size:11px;fill:#6b6b66;}
.pinnum{font-family:Arial,Helvetica,sans-serif;font-size:10px;fill:#6b6b66;}
.junc{fill:#1c1c1a;}
.w-vcc{stroke:#c0392b;stroke-width:1.6px;fill:none;}
.w-gnd{stroke:#33332f;stroke-width:1.6px;fill:none;}
.w-a{stroke:#1e8449;stroke-width:1.6px;fill:none;}
.w-b{stroke:#1f618d;stroke-width:1.6px;fill:none;}
.w-ref{stroke:#7d3c98;stroke-width:1.6px;fill:none;}
.w-out{stroke:#b9770e;stroke-width:1.6px;fill:none;}
.w-i2c{stroke:#5d6d7e;stroke-width:1.6px;fill:none;}
.railtxt{font-family:Arial,Helvetica,sans-serif;font-size:13px;font-weight:600;}
</style>
  </defs>
  <rect x="3.305" width="2020" height="1000" fill="#faf9f6" y="-0.403" style="pointer-events: none;"/>
  <title>Skematik revisi v2: AGND/DGND terpisah dengan single-point tie, VCC dipisah ferrite bead, AIN1-3 di-ground, C4 socket swappable</title>
  <desc>Revisi dari skematik sebelumnya. Ground dipecah jadi AGND (TMR, AD623, filter) dan DGND (Arduino, I2C), bertemu di satu titik dekat pin GND ADS1115. Jalur 5V dipisah dengan ferrite bead antara ADS1115 dan Arduino. Pin AIN1-AIN3 ADS1115 ditarik ke AGND, tidak lagi floating. Kapasitor C4 anti-alias diganti jadi socket agar nilainya bisa ditukar.</desc>
  <line x1="259.518" y1="50.908" x2="1660" y2="51.3" class="w-vcc"/>
  <rect x="1660" y="43" width="26" height="16" rx="2" class="box"/>
  <text x="1673" y="32" text-anchor="middle" class="lbls" style="white-space: pre;">FB1</text>
  <line x1="1686" y1="51.3" x2="1706.139" y2="51.373" class="w-vcc"/>
  <text x="900" y="32" text-anchor="middle" class="lbls" style="white-space: pre;">5V analog + ADS1115</text>
  <text x="70" y="54" text-anchor="end" class="railtxt" fill="#c0392b" style="white-space: pre;" transform="matrix(2.452717, 0, 0, 1.86197, 32.673005, -29.934277)">5V</text>
  <line x1="310.694" y1="601.4" x2="1569.371" y2="601.4" class="w-gnd" style=""/>
  <line x1="1569.371" y1="601.4" x2="1682.181" y2="601.4" class="w-gnd" style=""/>
  <circle cx="1569.371" cy="601.4" r="4.5" fill="#c0392b"/>
  <text x="700" y="622" text-anchor="middle" class="railtxt" fill="#33332f" style="white-space: pre; font-size: 13px;">AGND</text>
  <text x="1569.371" y="640" text-anchor="middle" class="lbls" style="white-space: pre;">single-point tie (dekat pin GND ADS1115)</text>
  <text x="1625" y="622" text-anchor="middle" class="railtxt" fill="#33332f" style="white-space: pre; font-size: 13px;">DGND</text>
  <rect x="70" y="280" width="170" height="200" rx="4" class="box"/>
  <text x="155" y="305" text-anchor="middle" class="title" style="white-space: pre;">J2</text>
  <text x="155" y="323" text-anchor="middle" class="sub2" style="white-space: pre;">Sensor TMR</text>
  <text x="155" y="337" text-anchor="middle" class="sub2" style="white-space: pre;">(cek: ALT023-10E)</text>
  <line x1="240" y1="320" x2="260" y2="320" class="w-vcc"/>
  <line x1="260" y1="320" x2="260" y2="50" class="w-vcc"/>
  <text x="232" y="324" text-anchor="end" class="lbl" style="white-space: pre;">VCC</text>
  <line x1="240" y1="370" x2="390" y2="370" class="w-a"/>
  <text x="232" y="374" text-anchor="end" class="lbl" style="white-space: pre;">OUT+</text>
  <line x1="240" y1="420" x2="390" y2="420" class="w-b"/>
  <text x="232" y="424" text-anchor="end" class="lbl" style="white-space: pre;">OUT−</text>
  <line x1="240" y1="470" x2="310" y2="470" class="w-gnd"/>
  <line x1="310" y1="470" x2="311.711" y2="603.729" class="w-gnd"/>
  <text x="232" y="474" text-anchor="end" class="lbl" style="white-space: pre;">GND</text>
  <circle cx="260" cy="160" r="2.6" class="junc"/>
  <line x1="260" y1="160" x2="290" y2="160" class="w-vcc"/>
  <line x1="290" y1="160" x2="290" y2="168" class="w-vcc"/>
  <line x1="278" y1="168" x2="302" y2="168" class="comp"/>
  <line x1="278" y1="176" x2="302" y2="176" class="comp"/>
  <line x1="290" y1="176" x2="290" y2="470" class="w-gnd"/>
  <circle cx="290" cy="470" r="2.6" class="junc"/>
  <text x="308" y="172" text-anchor="start" class="lbls" style="white-space: pre;">C5 100nF</text>
  <path d="M390,370 L400,370 L405,362 L415,378 L425,362 L435,378 L440,370 L450,370" class="comp"/>
  <text x="420" y="348" text-anchor="middle" class="lbl" style="white-space: pre;">R1  1,0 kΩ</text>
  <line x1="450" y1="370" x2="470" y2="370" class="w-a"/>
  <path d="M390,420 L400,420 L405,412 L415,428 L425,412 L435,428 L440,420 L450,420" class="comp"/>
  <text x="420" y="442" text-anchor="middle" class="lbl" style="white-space: pre;">R2  1,0 kΩ</text>
  <line x1="450" y1="420" x2="510" y2="420" class="w-b"/>
  <circle cx="470" cy="370" r="2.6" class="junc"/>
  <line x1="470" y1="370" x2="470" y2="398" class="w-a"/>
  <line x1="458" y1="398" x2="482" y2="398" class="comp"/>
  <line x1="458" y1="406" x2="482" y2="406" class="comp"/>
  <line x1="470" y1="406" x2="470" y2="600.079" class="w-gnd" style=""/>
  <line x1="461" y1="414" x2="479" y2="414" class="w-gnd" style="visibility: hidden;"/>
  <line x1="475.476" y1="458.296" x2="476.432" y2="458.296" class="w-gnd" style="visibility: hidden;"/>
  <line x1="467" y1="422" x2="473" y2="422" class="w-gnd" style="visibility: hidden;"/>
  <text x="470" y="391" text-anchor="middle" class="lbls" style="white-space: pre;">C1 10nF</text>
  <circle cx="510" cy="420" r="2.6" class="junc"/>
  <line x1="510" y1="420" x2="510" y2="448" class="w-b"/>
  <line x1="498" y1="448" x2="522" y2="448" class="comp"/>
  <line x1="498" y1="456" x2="522" y2="456" class="comp"/>
  <line x1="510" y1="456" x2="510" y2="602.214" class="w-gnd" style=""/>
  <line x1="501" y1="464" x2="519" y2="464" class="w-gnd" style="visibility: hidden;"/>
  <line x1="504" y1="468" x2="516" y2="468" class="w-gnd" style="visibility: hidden;"/>
  <line x1="507" y1="472" x2="513" y2="472" class="w-gnd" style="visibility: hidden;"/>
  <text class="lbls" style="white-space: pre; font-size: 11px;" x="546.775" y="456.773" text-anchor="middle">C2 10nF</text>
  <text x="425" y="466" text-anchor="middle" class="lbls" style="white-space: pre;">C1–C3: C0G/NP0, 5%</text>
  <line x1="470" y1="370" x2="530" y2="370" class="w-a"/>
  <line x1="510" y1="420" x2="530" y2="420" class="w-b"/>
  <circle cx="530" cy="370" r="2.6" class="junc"/>
  <circle cx="530" cy="420" r="2.6" class="junc"/>
  <line x1="530" y1="370" x2="530" y2="390" class="w-a"/>
  <line x1="518" y1="390" x2="542" y2="390" class="comp"/>
  <line x1="518" y1="398" x2="542" y2="398" class="comp"/>
  <line x1="530" y1="398" x2="530" y2="420" class="w-b"/>
  <text x="546" y="398" text-anchor="start" class="lbls" style="white-space: pre;">C3 100nF</text>
  <line x1="530" y1="370" x2="620" y2="370" class="w-a"/>
  <line x1="530" y1="420" x2="620" y2="420" class="w-b"/>
  <rect x="620" y="260" width="180" height="240" rx="4" class="box"/>
  <text x="710" y="282" text-anchor="middle" class="title" style="white-space: pre;">AD623</text>
  <text x="710" y="299" text-anchor="middle" class="sub2" style="white-space: pre;">in-amp</text>
  <text x="612" y="366" text-anchor="end" class="pinnum" style="white-space: pre;">3</text>
  <text x="628" y="374" text-anchor="start" class="lbl" style="white-space: pre;">+IN</text>
  <text x="612" y="416" text-anchor="end" class="pinnum" style="white-space: pre;">2</text>
  <text x="628" y="424" text-anchor="start" class="lbl" style="white-space: pre;">−IN</text>
  <text x="808" y="296" text-anchor="start" class="pinnum" style="white-space: pre;">7</text>
  <text x="792" y="304" text-anchor="end" class="lbl" style="white-space: pre;">+VS</text>
  <text x="808" y="346" text-anchor="start" class="pinnum" style="white-space: pre;">6</text>
  <text x="792" y="354" text-anchor="end" class="lbl" style="white-space: pre;">OUT</text>
  <text x="808" y="406" text-anchor="start" class="pinnum" style="white-space: pre;">5</text>
  <text x="792" y="414" text-anchor="end" class="lbl" style="white-space: pre;">REF</text>
  <text x="808" y="456" text-anchor="start" class="pinnum" style="white-space: pre;">4</text>
  <text x="792" y="464" text-anchor="end" class="lbl" style="white-space: pre;">−VS</text>
  <text x="660" y="486" text-anchor="middle" class="lbl" style="white-space: pre;">−RG</text>
  <text x="760" y="486" text-anchor="middle" class="lbl" style="white-space: pre;">+RG</text>
  <text x="648" y="516" text-anchor="end" class="pinnum" style="white-space: pre;">1</text>
  <text x="772" y="516" text-anchor="start" class="pinnum" style="white-space: pre;">8</text>
  <line x1="800" y1="300" x2="825" y2="300" class="w-vcc"/>
  <line x1="825" y1="300" x2="825" y2="50" class="w-vcc"/>
  <line x1="800" y1="460" x2="830" y2="460" class="w-gnd"/>
  <line x1="830" y1="460" x2="829.682" y2="600.395" class="w-gnd"/>
  <line x1="660" y1="500" x2="660" y2="510" class="comp"/>
  <line x1="760" y1="500" x2="760" y2="510" class="comp"/>
  <path d="M660,510 L680,510 L690,510 L695,502 L705,518 L715,502 L725,518 L730,510 L740,510 L760,510" class="comp"/>
  <text x="710" y="534" text-anchor="middle" class="lbls" style="white-space: pre;">RG (jumper) — lihat tabel gain</text>
  <circle cx="825" cy="120" r="2.6" class="junc"/>
  <line x1="825" y1="120" x2="850" y2="120" class="w-vcc"/>
  <line x1="850" y1="120" x2="850" y2="128" class="w-vcc"/>
  <line x1="838" y1="128" x2="862" y2="128" class="comp"/>
  <line x1="838" y1="136" x2="862" y2="136" class="comp"/>
  <line x1="850" y1="136" x2="850" y2="144" class="w-gnd"/>
  <line x1="841" y1="144" x2="859" y2="144" class="w-gnd"/>
  <line x1="844" y1="148" x2="856" y2="148" class="w-gnd"/>
  <line x1="847" y1="152" x2="853" y2="152" class="w-gnd"/>
  <line x1="850" y1="152" x2="850" y2="601.4" class="w-gnd"/>
  <text x="866" y="134" text-anchor="start" class="lbls" style="white-space: pre;">C6 100nF</text>
  <circle cx="825" cy="180" r="2.6" class="junc"/>
  <line x1="825" y1="180" x2="890" y2="180" class="w-vcc"/>
  <line x1="890" y1="180" x2="890" y2="188" class="w-vcc"/>
  <text x="880" y="184" text-anchor="middle" class="lbls" style="white-space: pre;">+</text>
  <line x1="878" y1="188" x2="902" y2="188" class="comp"/>
  <line x1="878" y1="196" x2="902" y2="196" class="comp"/>
  <line x1="890" y1="196" x2="890" y2="204" class="w-gnd"/>
  <line x1="881" y1="204" x2="899" y2="204" class="w-gnd"/>
  <line x1="884" y1="208" x2="896" y2="208" class="w-gnd"/>
  <line x1="887" y1="212" x2="893" y2="212" class="w-gnd"/>
  <line x1="890" y1="212" x2="890" y2="601.4" class="w-gnd"/>
  <text x="906" y="194" text-anchor="start" class="lbls" style="white-space: pre;">C7 10μF</text>
  <line x1="1000" y1="50" x2="1000" y2="90" class="w-vcc"/>
  <path d="M1000,90 L1000,100 L992,105 L1008,115 L992,125 L1008,135 L1000,140 L1000,150" class="comp"/>
  <text x="1026" y="120" text-anchor="start" class="lbl" style="white-space: pre;">R3  1,0 kΩ</text>
  <line x1="1000" y1="150" x2="1000" y2="410" class="w-ref"/>
  <line x1="800" y1="410" x2="1000" y2="410" class="w-ref"/>
  <circle cx="1000" cy="410" r="2.6" class="junc"/>
  <text x="900" y="432" text-anchor="middle" class="lbls" style="white-space: pre;">VBIAS/REF</text>
  <line x1="1000" y1="410" x2="1000" y2="450" class="w-ref"/>
  <path d="M1000,450 L1000,460 L992,465 L1008,475 L992,485 L1008,495 L1000,500 L1000,510" class="comp"/>
  <text x="925.775" y="488.133" text-anchor="start" class="lbl" style="white-space: pre; font-size: 12.5px;">R4  1,0 kΩ</text>
  <line x1="1000" y1="510" x2="1000" y2="602.529" class="w-gnd" style=""/>
  <line x1="991" y1="518" x2="1009" y2="518" class="w-gnd" style="visibility: hidden;"/>
  <line x1="994" y1="522" x2="1006" y2="522" class="w-gnd" style="visibility: hidden;"/>
  <line x1="997" y1="526" x2="1003" y2="526" class="w-gnd" style="visibility: hidden;"/>
  <line x1="1000" y1="410" x2="1035" y2="410" class="w-ref"/>
  <line x1="1035" y1="410" x2="1035" y2="418" class="w-ref"/>
  <line x1="1023" y1="418" x2="1047" y2="418" class="comp"/>
  <line x1="1023" y1="426" x2="1047" y2="426" class="comp"/>
  <line x1="1035" y1="426" x2="1035" y2="600.184" class="w-gnd" style=""/>
  <line x1="1026" y1="434" x2="1044" y2="434" class="w-gnd" style="visibility: hidden;"/>
  <line x1="1029" y1="438" x2="1041" y2="438" class="w-gnd" style="visibility: hidden;"/>
  <line x1="1032" y1="442" x2="1038" y2="442" class="w-gnd" style="visibility: hidden;"/>
  <text x="1051" y="424" text-anchor="start" class="lbls" style="white-space: pre;">C8 100nF</text>
  <line x1="800" y1="350" x2="1200" y2="350" class="w-out"/>
  <path d="M1200,350 L1210,350 L1215,342 L1225,358 L1235,342 L1245,358 L1250,350 L1260,350" class="comp"/>
  <text x="1230" y="328" text-anchor="middle" class="lbl" style="white-space: pre;">R5  10,0 kΩ</text>
  <line x1="1260" y1="350" x2="1270" y2="350" class="w-out"/>
  <circle cx="1270" cy="350" r="2.6" class="junc"/>
  <line x1="1270" y1="350" x2="1270" y2="378" class="w-out"/>
  <rect x="1250" y="368" width="40" height="26" rx="2" fill="none" stroke="#33332f" stroke-width="1" stroke-dasharray="3,2"/>
  <rect x="1264" y="374" width="12" height="6" class="box"/>
  <rect x="1264" y="384" width="12" height="6" class="box"/>
  <line x1="1270" y1="390" x2="1271.211" y2="599.596" class="w-gnd" style=""/>
  <text x="1288" y="380" text-anchor="start" class="lbl" style="white-space: pre;">C4 socket</text>
  <text x="1288" y="394" text-anchor="start" class="lbls" style="white-space: pre;">(nilai ditukar, lihat tabel)</text>
  <line x1="1270" y1="350" x2="1350" y2="350" class="w-out"/>
  <rect x="1350" y="260" width="180" height="240" rx="4" class="box"/>
  <text x="1440" y="282" text-anchor="middle" class="title" style="white-space: pre;">ADS1115</text>
  <text x="1440" y="299" text-anchor="middle" class="sub2" style="white-space: pre;">ADC 16-bit</text>
  <text x="1358" y="346" text-anchor="start" class="lbl" style="white-space: pre;">AIN0</text>
  <text x="1358" y="390" text-anchor="start" class="lbl" style="white-space: pre;">AIN1</text>
  <line x1="1350" y1="390" x2="1310" y2="390" class="w-gnd"/>
  <line x1="1310" y1="390" x2="1310" y2="601.4" class="w-gnd"/>
  <text x="1358" y="416" text-anchor="start" class="lbl" style="white-space: pre;">AIN2</text>
  <line x1="1350" y1="416" x2="1322" y2="416" class="w-gnd"/>
  <line x1="1322" y1="416" x2="1322" y2="601.4" class="w-gnd"/>
  <text x="1358" y="442" text-anchor="start" class="lbl" style="white-space: pre;">AIN3</text>
  <line x1="1350" y1="442" x2="1334" y2="442" class="w-gnd"/>
  <line x1="1334" y1="442" x2="1334" y2="601.4" class="w-gnd"/>
  <text x="1440" y="462" text-anchor="middle" class="lbls" style="white-space: pre;">AIN1-3 diground ke AGND</text>
  <text x="1522" y="296" text-anchor="end" class="lbl" style="white-space: pre;">VDD</text>
  <text x="1522" y="346" text-anchor="end" class="lbl" style="white-space: pre;">SCL</text>
  <text x="1522" y="396" text-anchor="end" class="lbl" style="white-space: pre;">SDA</text>
  <text x="1522" y="446" text-anchor="end" class="lbl" style="white-space: pre;">GND</text>
  <text x="1440" y="485" text-anchor="middle" class="lbls" style="white-space: pre;">ADDR → GND (alamat 0x48)</text>
  <line x1="1530" y1="300" x2="1560" y2="300" class="w-vcc"/>
  <line x1="1560" y1="300" x2="1560" y2="50" class="w-vcc"/>
  <circle cx="1560" cy="150" r="2.6" class="junc"/>
  <line x1="1560" y1="150" x2="1585" y2="150" class="w-vcc"/>
  <line x1="1585" y1="150" x2="1585" y2="158" class="w-vcc"/>
  <line x1="1573" y1="158" x2="1597" y2="158" class="comp"/>
  <line x1="1573" y1="166" x2="1597" y2="166" class="comp"/>
  <line x1="1585" y1="166" x2="1585" y2="174" class="w-gnd"/>
  <line x1="1576" y1="174" x2="1594" y2="174" class="w-gnd"/>
  <line x1="1579" y1="178" x2="1591" y2="178" class="w-gnd"/>
  <line x1="1582" y1="182" x2="1588" y2="182" class="w-gnd"/>
  <line x1="1585" y1="182" x2="1585" y2="601.4" class="w-gnd"/>
  <text x="1565" y="140" text-anchor="middle" class="lbls" style="white-space: pre;">C9 100nF</text>
  <line x1="1530" y1="450" x2="1570" y2="450" class="w-gnd"/>
  <polyline class="w-gnd" points="1570 450 1570 555.586 1569.371 601.348"/>
  <line x1="1530" y1="350" x2="1750" y2="350" class="w-i2c"/>
  <line x1="1530" y1="400" x2="1750" y2="400" class="w-i2c"/>
  <circle cx="1600" cy="350" r="2.6" class="junc"/>
  <line x1="1600" y1="350" x2="1600" y2="340" class="w-i2c"/>
  <path d="M1600,340 L1600,330 L1592,325 L1608,315 L1592,305 L1608,295 L1600,290 L1600,280" class="comp"/>
  <line x1="1600" y1="280" x2="1600" y2="50" class="w-i2c"/>
  <text x="1600" y="265" text-anchor="middle" class="lbls" style="white-space: pre;">R6 4,7 kΩ</text>
  <circle cx="1620" cy="400" r="2.6" class="junc"/>
  <line x1="1620" y1="400" x2="1620" y2="390" class="w-i2c"/>
  <path d="M1620,390 L1620,380 L1612,375 L1628,365 L1612,355 L1628,345 L1620,340 L1620,330" class="comp"/>
  <line x1="1620" y1="330" x2="1620" y2="50" class="w-i2c"/>
  <text x="1620" y="220" text-anchor="middle" class="lbls" style="white-space: pre;">R7 4,7 kΩ</text>
  <rect x="1750" y="260" width="180" height="240" rx="4" class="box"/>
  <text x="1840" y="282" text-anchor="middle" class="title" style="white-space: pre;">Arduino Uno</text>
  <text x="1840" y="299" text-anchor="middle" class="sub2" style="white-space: pre;">(Rev3)</text>
  <text x="1758" y="296" text-anchor="start" class="lbl" style="white-space: pre;">5V</text>
  <text x="1758" y="346" text-anchor="start" class="lbl" style="white-space: pre;">A5/SCL</text>
  <text x="1758" y="396" text-anchor="start" class="lbl" style="white-space: pre;">A4/SDA</text>
  <text x="1758" y="446" text-anchor="start" class="lbl" style="white-space: pre;">GND</text>
  <polyline class="w-vcc" points="1706.434 51.497 1701.551 299.837 1750 300"/>
  <polyline class="w-gnd" points="1675.951 600.704 1677.666 448.585 1750 450"/>
</svg>